<svg width="234" height="54" viewBox="0 0 234 54" xmlns="http://www.w3.org/2000/svg">
    <g fill="none" fill-rule="evenodd">
        <path fill="#82BDBB" d="M49.502 53.594h1.472V0h-1.472z"/>
        <path fill="#231F20" d="M64.903 23.141h-3.274v-2.074h8.903v2.074h-3.266v9.387h-2.363zM72.689 21.066h2.36v4.855h4.91v-4.855h2.357v11.463h-2.358V28.03h-4.91v4.499h-2.36zM85.129 21.066h7.584v2.074h-5.226v2.63h4.607v2.024h-4.607v2.662h5.465v2.073H85.13z"/>
        <g fill="#231F20">
            <path d="m105.391 29.003-.726-1.733c-.321-.76-.656-1.922-.688-2.041-.024.056-.357 1.25-.675 2.041l-.724 1.733h2.813zm-1.486-8.034h.204l5.245 11.56h-2.48l-.64-1.55h-4.455l-.64 1.55h-2.274l5.04-11.56zM114.729 30.456c2.544 0 3.709-1.518 3.709-3.663 0-2.134-1.165-3.652-3.71-3.652h-1.04v7.315h1.04zm-3.404-9.39h3.526c3.516 0 6.032 2.347 6.032 5.727 0 3.393-2.493 5.736-6.032 5.736h-3.526V21.066zM123.295 21.066h7.589v2.074h-5.236v2.63h4.602v2.024h-4.602v2.662h5.47v2.073h-7.823zM133.084 26.793c0-3.38 2.618-5.858 5.908-5.858 2.067 0 3.548.738 4.581 2.34l-1.805 1.283c-.544-.881-1.472-1.502-2.776-1.502-2.081 0-3.48 1.602-3.48 3.737 0 2.145 1.399 3.783 3.48 3.783 1.48 0 2.305-.713 2.943-1.685l1.84 1.258c-.999 1.554-2.573 2.526-4.783 2.526-3.29 0-5.908-2.489-5.908-5.882M145.39 26.793c0-3.38 2.61-5.858 5.9-5.858 2.074 0 3.565.738 4.587 2.34l-1.808 1.283c-.533-.881-1.462-1.502-2.779-1.502-2.067 0-3.47 1.602-3.47 3.737 0 2.145 1.403 3.783 3.47 3.783 1.484 0 2.317-.713 2.956-1.685l1.833 1.258c-1.001 1.554-2.579 2.526-4.789 2.526-3.29 0-5.9-2.489-5.9-5.882M167.144 26.793c0-2.135-1.425-3.767-3.516-3.767-2.092 0-3.503 1.632-3.503 3.767 0 2.145 1.41 3.783 3.503 3.783 2.091 0 3.516-1.638 3.516-3.783m-9.45 0c0-3.38 2.631-5.873 5.934-5.873 3.315 0 5.933 2.493 5.933 5.873 0 3.393-2.618 5.882-5.933 5.882-3.303 0-5.934-2.489-5.934-5.882M174.74 26.793c0-3.38 2.395-5.858 5.856-5.858 1.862 0 3.213.506 4.153 1.584l-1.601 1.581c-.571-.585-1.228-1.044-2.552-1.044-2.082 0-3.434 1.602-3.434 3.737 0 2.145 1.39 3.783 3.8 3.783.732 0 1.649-.138 2.244-.427v-1.853h-2.766v-2.067h4.914v5.12c-.654.54-2.301 1.326-4.392 1.326-3.74 0-6.222-2.489-6.222-5.882M192.182 26.563c1.165 0 1.91-.459 1.91-1.725 0-1.279-.784-1.697-1.91-1.697h-1.82v3.422h1.82zm-4.178-5.497h4.25c2.34 0 4.263 1.1 4.263 3.772 0 1.744-.904 2.837-2.246 3.354l2.622 4.337h-2.705l-2.325-3.975h-1.502v3.975h-2.357V21.066zM207.998 26.793c0-2.135-1.412-3.767-3.503-3.767-2.09 0-3.508 1.632-3.508 3.767 0 2.145 1.418 3.783 3.508 3.783s3.503-1.638 3.503-3.783m-9.443 0c0-3.38 2.628-5.873 5.94-5.873 3.3 0 5.934 2.493 5.934 5.873 0 3.393-2.633 5.882-5.934 5.882-3.312 0-5.94-2.489-5.94-5.882M212.808 28.38v-7.315h2.346v7.183c0 1.667.74 2.312 2.3 2.312 1.548 0 2.26-.645 2.26-2.312v-7.183h2.364v7.315c0 2.902-2.01 4.296-4.624 4.296-2.644 0-4.646-1.394-4.646-4.296M228.796 26.693c1.164 0 1.9-.52 1.9-1.785 0-1.276-.77-1.768-1.9-1.768h-1.604v3.553h1.604zm-3.953-5.628h4.024c2.343 0 4.265 1.168 4.265 3.843 0 2.681-1.938 3.865-4.265 3.865h-1.675v3.757h-2.349V21.065zM38.847 46.893 18.472 6.706 0 46.893h1.528l12.303-26.89 12.194 26.89z"/>
            <path d="M14.573 36.095H7.992l-.457 1.292h7.61z"/>
        </g>
    </g>
</svg>
